<svg width="181" height="35" viewBox="0 0 181 35" fill="none" xmlns="http://www.w3.org/2000/svg">
<g clip-path="url(#clip0_11100_10875)">
<path d="M169.5 33.4107C166.6 33.5107 163.8 32.7107 161.6 30.9107C159.5 29.0107 158.4 26.3107 158.6 23.5107V8.51074H168.3V23.5107C168.3 24.2107 168.9 24.8107 169.6 24.8107C170.3 24.8107 170.8 24.2107 170.9 23.5107V8.51074H180.6V23.5107C180.6 26.7107 179.6 29.2107 177.6 30.9107C175.2 32.7107 172.3 33.6107 169.5 33.4107ZM48.2 33.4107C41.2 33.3107 35.5 27.6107 35.6 20.5107C35.4 13.5107 41 7.71074 48 7.61074C55 7.41074 60.8 13.0107 60.9 20.0107V20.6107C60.9 24.0107 59.6 27.3107 57.2 29.7107C54.8 32.1107 51.6 33.4107 48.2 33.4107ZM48.2 16.9107C46.2 16.9107 44.5 18.5107 44.5 20.5107C44.5 22.5107 46.1 24.2107 48.1 24.2107C50.1 24.2107 51.8 22.6107 51.8 20.6107V20.5107C51.8 18.5107 50.2 16.9107 48.2 16.9107ZM145.8 33.4107C141.7 33.4107 138.9 32.2107 135.4 30.2107L138.1 23.8107C138.1 23.8107 142.1 26.4107 144.8 26.4107C145.1 26.4107 145.4 26.4107 145.7 26.3107C146.2 26.2107 146.5 25.8107 146.5 25.3107C146.5 24.8107 146.3 24.4107 145.8 24.2107C145.3 24.0107 144.7 23.8107 144.2 23.7107C142.3 23.2107 139.3 22.5107 137.8 19.6107C136.1 16.4107 136.8 12.5107 139.5 10.2107C141.6 8.51074 144.2 7.61074 146.9 7.61074H147.4C150.4 7.71074 153.3 8.61074 155.9 10.3107L153.2 16.7107C151.4 15.7107 149 14.6107 147.5 14.6107C146.7 14.6107 146.3 14.9107 146.2 15.5107C146.1 16.4107 147 16.7107 148.5 17.1107C149.8 17.4107 151 17.8107 152.2 18.4107C155.1 20.1107 156.6 23.5107 155.7 26.8107C155.3 28.7107 154.2 30.3107 152.6 31.4107C150.7 32.8107 148.3 33.5107 145.8 33.4107ZM20.3 32.5107H10.5V8.61074H20.3V20.2107L25.5 8.61074H36.6L31 20.3107L36.9 32.5107H25.8L20.3 20.3107V32.5107ZM70.3 32.5107H61.5L65.1 8.61074H74L77 18.2107L80 8.61074H88.9L92.2 31.1107L99.8 8.61074H109.5L117.7 32.5107H107.5L104.6 21.2107L101.7 32.5107H83.5L82.2 23.4107L79.7 32.5107H74L71.5 23.4107L70.3 32.5107ZM130.3 32.5107H120.5V17.5107H114.8V8.61074H130.2V1.01074H139.3V10.5107H130.2L130.3 32.5107Z" fill="#140A9A"/>
</g>
<defs>
<clipPath id="clip0_11100_10875">
<rect width="170" height="34" fill="white" transform="translate(10.5 0.210938)"/>
</clipPath>
</defs>
</svg>
