<?xml version="1.0" encoding="utf-8"?>
<!-- Generator: Adobe Illustrator 27.9.0, SVG Export Plug-In . SVG Version: 6.00 Build 0)  -->
<svg version="1.1" id="レイヤー_1" xmlns="http://www.w3.org/2000/svg" xmlns:xlink="http://www.w3.org/1999/xlink" x="0px"
	 y="0px" width="186.6px" height="55.639px" viewBox="0 0 186.6 55.639" style="enable-background:new 0 0 186.6 55.639;"
	 xml:space="preserve">
<style type="text/css">
	.st0{fill:#52778B;}
</style>
<g id="グループ_115669" transform="translate(620.034 -253.692)">
	<path id="パス_341286" d="M-587.38,306.961h12.986v1.443h-12.986V306.961z M-586.685,296.961h11.713v1.443h-11.713V296.961z
		 M-585.99,301.676h10.252v1.46h-10.253L-585.99,301.676z"/>
	<path id="パス_341287" d="M-570.303,296.041h1.4v0.68h4.333v-0.68h1.43v0.68h3.018v1.289h-3.018v0.621h-1.43v-0.621h-4.333v0.621
		h-1.4v-0.621h-3.017v-1.289h3.017V296.041z M-561.24,298.946v1.13h-4.814v0.737h5.934v1.206h-4.418v0.593
		c0,0.17,0.069,0.226,0.24,0.226h2.35c0.34,0,0.41-0.085,0.539-0.706l1.289,0.284c-0.172,1.146-0.44,1.571-1.19,1.571h-3.443
		c-0.89,0-1.2-0.3-1.2-1.148v-0.819h-1.783c-1.198,1.579-2.999,2.589-4.971,2.788l-0.41-1.246c0.481-0.043,2.676-0.227,3.639-1.542
		h-3.838v-1.207h5.861v-0.737h-4.431v-1.13h4.431v-0.641h1.4v0.641H-561.24z M-573.319,308.009c1.585-0.061,3.161-0.252,4.715-0.569
		v-0.026c-0.668-0.309-1.284-0.72-1.826-1.218c-0.71,0.298-1.444,0.535-2.194,0.708l-0.6-1.2c1.895-0.273,3.644-1.17,4.971-2.55
		l1.4,0.5c-0.245,0.34-0.532,0.649-0.852,0.919h5.509v1.132c-0.73,0.718-1.584,1.298-2.52,1.714v0.026
		c1.516,0.264,3.051,0.397,4.589,0.4l-0.44,1.428c-1.84-0.036-3.668-0.312-5.437-0.819c-0.129-0.029-0.68-0.24-0.752-0.24
		c-0.039,0.01-0.078,0.024-0.114,0.042c-1.949,0.52-3.938,0.879-5.946,1.075L-573.319,308.009z M-569.183,305.699v0.029
		c0.751,0.525,1.576,0.935,2.448,1.217c0.927-0.257,1.803-0.669,2.593-1.217v-0.029H-569.183z"/>
	<path id="パス_341288" d="M-547.494,308.079h-10.523v-10.353h10.523V308.079z M-549.224,299.284h-7.107v7.251h7.107
		L-549.224,299.284z"/>
	<path id="パス_341289" d="M-541.334,303.348c-1.271-0.674-2.604-1.223-3.98-1.642l0.652-1.474
		c1.369,0.384,2.701,0.891,3.979,1.516L-541.334,303.348z M-544.507,306.848c5.34-0.441,7.762-2.054,9.6-7.706l1.531,0.682
		c-1.924,5.367-4.319,8-10.735,8.721L-544.507,306.848z M-540.243,300.064c-1.266-0.635-2.588-1.152-3.949-1.543l0.678-1.489
		c1.37,0.387,2.705,0.885,3.994,1.489L-540.243,300.064z M-535.936,298.664c-0.154-0.778-0.376-1.541-0.665-2.28l1.159-0.256
		c0.319,0.724,0.562,1.479,0.723,2.253L-535.936,298.664z M-533.868,298.364c-0.173-0.745-0.42-1.47-0.737-2.166l1.147-0.257
		c0.309,0.679,0.565,1.381,0.764,2.1L-533.868,298.364z"/>
	<path id="パス_341290" d="M-531.869,307.314c3.789-1.571,6.75-4.652,8.169-8.5h-7.369v-1.545h9.516
		c-0.48,2.129-1.407,4.132-2.719,5.877c0.837,0.666,2.9,2.349,4.787,4.205l-1.331,1.348c-1.354-1.562-2.832-3.012-4.419-4.337
		c-1.54,1.837-3.476,3.3-5.664,4.279L-531.869,307.314z"/>
	<path id="パス_341291" d="M-511.206,308.9h-1.614v-4.32c-1.529,0.867-3.155,1.552-4.843,2.042l-0.737-1.471
		c3.532-0.75,6.735-2.599,9.15-5.283h-8.1v-1.486h4.546v-1.814h1.615v1.814h3.837v1.471c-1.082,1.431-2.381,2.683-3.852,3.711
		L-511.206,308.9z M-506.333,306.734c-1.295-1.038-2.725-1.896-4.251-2.549l1.008-1.162c1.477,0.6,2.887,1.355,4.205,2.252
		L-506.333,306.734z"/>
	<path id="パス_341292" d="M-492.652,298.434c-0.413,2.38-1.573,9.306-10.125,10.4l-0.667-1.443
		c4.617-0.683,7.335-2.437,8.682-7.449h-5.055c-0.916,1.296-2.075,2.401-3.412,3.255l-1.051-1.2c2.164-1.228,3.801-3.208,4.6-5.565
		l1.742,0.339c-0.196,0.589-0.468,1.151-0.808,1.67L-492.652,298.434z"/>
	<path id="パス_341293" d="M-491.017,307.314c3.79-1.569,6.752-4.651,8.17-8.5h-7.363v-1.545h9.514
		c-0.48,2.131-1.408,4.136-2.721,5.882c0.836,0.666,2.9,2.349,4.786,4.205l-1.331,1.348c-1.354-1.562-2.832-3.013-4.419-4.337
		c-1.539,1.837-3.476,3.301-5.664,4.279L-491.017,307.314z"/>
	<path id="パス_341294" d="M-473.168,296.495v3.626c2.477,0.731,4.855,1.763,7.081,3.072l-0.764,1.629
		c-0.538-0.313-1.473-0.879-2.96-1.642c-1.056-0.598-2.184-1.06-3.357-1.375v7.193h-1.7v-12.5L-473.168,296.495z"/>
	<path id="パス_341295" class="st0" d="M-620.034,255.139h7.084v20.259h11.743v4.992h-18.826L-620.034,255.139z"/>
	<path id="パス_341296" class="st0" d="M-600.155,270.985c0-6.257,4.988-9.876,11.541-9.876s11.541,3.618,11.541,9.876
		c0,6.223-4.99,9.841-11.541,9.841S-600.155,277.208-600.155,270.985 M-584.155,270.985c0-2.822-1.3-5.318-4.458-5.318
		s-4.456,2.5-4.456,5.318c0,2.787,1.3,5.281,4.456,5.281S-584.155,273.771-584.155,270.985"/>
	<path id="パス_341297" class="st0" d="M-552.735,278.184c0,7.743-3.965,10.239-11.962,10.239
		c-2.681-0.044-5.341-0.488-7.891-1.316v-5.274c2.28,1.163,4.798,1.783,7.358,1.813c3.961,0,6.093-1.773,6.093-5.463v-0.171h-0.076
		c-1.543,1.766-3.921,2.379-6.666,2.379c-5.05,0-8.835-3.907-8.835-9.479c0-5.607,3.115-9.8,8.95-9.8
		c2.934,0,5.341,0.775,6.742,2.742h0.075v-2.308h6.211L-552.735,278.184z M-563.745,275.398c2.438,0,4.381-1.954,4.381-4.849
		c0.131-2.324-1.647-4.315-3.971-4.446c-0.137-0.008-0.273-0.009-0.41-0.003c-2.551,0-3.885,2.136-3.885,4.7
		c0,2.931,1.828,4.593,3.885,4.593"/>
	<path id="パス_341298" class="st0" d="M-540.666,258.47h-6.854v-4.778h6.854V258.47z M-547.52,261.543h6.854v18.848h-6.854
		V261.543z"/>
	<path id="パス_341299" class="st0" d="M-536.199,274.734c2.057,1.072,4.335,1.654,6.655,1.7c1.411,0.04,2.654-0.1,2.764-1.294
		c0.136-1.446-2.232-2.008-4.571-2.739c-2.528-0.789-5.165-2-5.165-5.532c0-4.342,4.5-5.92,8.456-5.747
		c2.264,0.034,4.507,0.443,6.638,1.209v4.653c-1.703-0.918-3.599-1.422-5.533-1.473c-1.486-0.038-3.055-0.026-3.161,1.091
		c-0.126,1.343,2.535,1.806,5.08,2.592c2.673,0.821,5.209,2.115,5.126,5.706c-0.114,4.994-4.758,6.033-9.255,5.891
		c-2.387-0.035-4.756-0.413-7.036-1.121L-536.199,274.734z"/>
	<path id="パス_341300" class="st0" d="M-516.938,261.545h6.244v3.473h0.079c1.348-2.909,4.113-3.907,7.236-3.907
		c5.409,0,7.581,3.618,7.581,7.523v11.76h-6.851v-9.118c0-3.543-1.429-4.737-3.295-4.737c-2.97,0-4.134,2.2-4.134,5.9v7.96h-6.855
		L-516.938,261.545z"/>
	<path id="パス_341301" class="st0" d="M-486.696,272.866c0.381,2.6,2.475,3.618,5.825,3.618c2.105,0,4.181-0.496,6.058-1.448v4.6
		c-2.335,0.828-4.8,1.232-7.277,1.194c-6.549,0-11.541-3.654-11.541-9.879s4.456-9.839,10.627-9.839
		c7.352,0,10.021,4.959,10.021,10.564v1.193L-486.696,272.866z M-479.156,269.176c0-2.171-1.066-3.944-3.807-3.944
		c-2.477,0-3.659,1.773-3.81,3.944H-479.156z"/>
	<path id="パス_341302" class="st0" d="M-465.597,270.805l-6.209-9.262h8.112l2.933,5.644l3.087-5.644h7.5l-6.206,9.188
		l6.625,9.66h-8.264l-3.314-5.86l-3.276,5.86h-7.731L-465.597,270.805z"/>
	<path id="パス_341303" class="st0" d="M-449.032,261.545h4.039v-3.45l6.74-2.774v6.224h4.8v4.556h-4.8v6.944
		c0,2.28,0.573,3.437,2.744,3.437c0.7,0.006,1.397-0.079,2.075-0.254v4.317c-1.342,0.213-2.7,0.306-4.058,0.277
		c-6.131,0-7.617-2.569-7.617-7.055v-7.671h-3.923L-449.032,261.545z"/>
</g>
</svg>
