<?xml version="1.0" encoding="iso-8859-1"?>
<!-- Generator: Adobe Illustrator 16.0.0, SVG Export Plug-In . SVG Version: 6.00 Build 0)  -->
<!DOCTYPE svg PUBLIC "-//W3C//DTD SVG 1.1//EN" "http://www.w3.org/Graphics/SVG/1.1/DTD/svg11.dtd">
<svg version="1.1" id="Layer_1" xmlns="http://www.w3.org/2000/svg" xmlns:xlink="http://www.w3.org/1999/xlink" x="0px" y="0px"
	 width="381.931px" height="88.779px" viewBox="0 0 381.931 88.779" style="enable-background:new 0 0 381.931 88.779;"
	 xml:space="preserve">
<g>
	<path style="fill:#D80C18;" d="M89.524,38.387h7.104V12.745h9.958V6.798H79.515v5.947h10.01V38.387L89.524,38.387z M219.196,38.387
		h7.111V12.745h9.958V6.798h-27.07v5.947h10.001V38.387L219.196,38.387z M241.618,38.421l2.631-6.958h13.713l2.768,6.958h7.798
		L255.821,6.977h-8.947l-12.942,31.444H241.618L241.618,38.421z M251.248,13.446l4.737,12.518h-9.623L251.248,13.446L251.248,13.446
		z M124.798,39.397c9.269,0,16.79-7.504,16.79-16.756c0-9.254-7.521-16.757-16.79-16.757c-9.266,0-16.69,7.503-16.69,16.757
		C108.108,31.893,115.532,39.397,124.798,39.397L124.798,39.397z M124.714,11.859c5.696-0.15,9.333,5.185,9.333,10.93
		c0,5.756-3.625,10.493-9.175,10.419c-5.541,0.074-9.35-4.568-9.35-10.329C115.522,17.13,119.016,11.78,124.714,11.859
		L124.714,11.859z M190.896,39.397c9.268,0,16.782-7.504,16.782-16.756c0-9.254-7.515-16.757-16.782-16.757
		c-9.271,0-16.691,7.503-16.691,16.757C174.204,31.893,181.624,39.397,190.896,39.397L190.896,39.397z M190.802,11.859
		c5.698-0.15,9.347,5.185,9.347,10.93c0,5.756-3.637,10.493-9.18,10.419c-5.544,0.074-9.356-4.568-9.356-10.329
		C181.612,17.13,185.108,11.78,190.802,11.859L190.802,11.859z M154.423,38.473h7.022V26.529l12.558-19.552h-8.038l-7.985,13.551
		l-7.806-13.516h-8.308c1.263,1.873,12.557,19.517,12.557,19.517V38.473L154.423,38.473z M106.835,62.693h-6.643v6.352h6.643V62.693
		L106.835,62.693z M116.275,62.693h-6.785v6.352h6.785V62.693L116.275,62.693z M35.785,44.808c19.22,0,34.805-10.031,34.805-22.406
		C70.59,10.029,55.005,0,35.785,0C16.554,0,0.974,10.029,0.974,22.402C0.974,34.777,16.554,44.808,35.785,44.808L35.785,44.808z
		 M35.809,35.234c-2.801,0-5.078-5.733-5.18-12.919c1.671,0.144,3.402,0.224,5.184,0.224c1.771,0,3.498-0.08,5.168-0.224
		C40.875,29.501,38.606,35.234,35.809,35.234L35.809,35.234z M30.942,17.156c0.73-5.124,2.628-8.787,4.867-8.787
		c2.229,0,4.125,3.659,4.86,8.776c-1.579,0.146-3.221,0.235-4.925,0.235C34.087,17.381,32.485,17.298,30.942,17.156L30.942,17.156z
		 M61.674,11.375c2.53,3.015,3.982,6.508,3.982,10.24c0,10.663-11.829,19.424-26.958,20.412c3.203-2.831,5.497-10.186,5.497-18.834
		c0-0.425-0.016-0.836-0.032-1.252c10.188-1.482,17.531-5.583,17.531-10.423C61.694,11.476,61.674,11.424,61.674,11.375
		L61.674,11.375z M35.744,2.659c11.042,0,19.991,3.297,19.991,7.364c0,3.017-4.937,5.604-11.991,6.741
		C42.622,8.845,39.49,3.179,35.788,3.179c-3.698,0-6.84,5.669-7.956,13.597c-7.11-1.122-12.089-3.725-12.089-6.753
		C15.743,5.956,24.702,2.659,35.744,2.659L35.744,2.659z M9.941,11.444c0,0.027-0.011,0.052-0.011,0.073
		c0,4.829,7.319,8.927,17.48,10.415c-0.006,0.42-0.022,0.835-0.022,1.26c0,8.648,2.284,15.994,5.479,18.83
		C17.796,41,6.017,32.252,6.017,21.615C6.017,17.91,7.444,14.441,9.941,11.444L9.941,11.444z M106.835,71.695h-6.643v5.92h6.643
		V71.695L106.835,71.695z M0.75,88.452h267.771V52.941H0.75V88.452L0.75,88.452z M202.321,75.105h11.196v-3.54h-8.488l-0.224-1.957
		c1.547-1.081,3.079-2.68,4.43-4.503h-5.805v-2.652h7.512c0.69-1.217,1.272-2.469,1.69-3.695l2.516,0.851
		c-0.324,0.948-0.733,1.903-1.202,2.845h11.567v2.652h-13.067c-0.875,1.371-1.88,2.654-2.936,3.809h4.007v-2.658h2.651v2.658h8.179
		v2.651h-8.179v3.54h10.451v2.649h-10.451v3.96h-2.651v-3.96h-11.196V75.105L202.321,75.105z M153.413,65.091h2.739
		c0,2.894,1.907,5.813,4.526,8.193c2.812-2.348,5.243-5.494,5.979-9.649h-16.515v-2.649h18.214v0.023h1.186
		c0,6.334-3.006,10.896-6.59,14.086c3.083,2.159,6.599,3.566,9.188,3.566l-0.878,2.646c-2.978,0-7.064-1.726-10.584-4.414
		c-4.695,3.334-9.532,4.617-9.623,4.637l-1.68-2.431c0.086-0.021,4.615-1.202,9.045-4.138
		C155.523,72.149,153.413,68.667,153.413,65.091L153.413,65.091z M158.231,65.371l2.69-0.404l1.85,3.795l-2.697,0.41L158.231,65.371
		L158.231,65.371z M97.543,60.042h21.386v21.083h-2.653v-0.857h-16.083v0.857h-2.649V60.042L97.543,60.042z M43.744,74.219h10.823
		V71.21h-8.175v-2.651h8.175v-3.012h-9.72v-2.649h9.72v-3.459h2.648v3.459h9.72v2.649h-9.72v3.012h8.172v2.651h-8.172v3.009h10.826
		v2.651H57.215v4.844h-2.648v-4.844H43.744V74.219L43.744,74.219z M116.275,71.695h-6.785v5.92h6.785V71.695L116.275,71.695z"/>
	<path style="fill-rule:evenodd;clip-rule:evenodd;fill:#E60012;" d="M337.333,0.425c24.402,0,44.598,20.195,44.598,43.756
		c0,5.049-0.842,10.939-2.525,15.146c-1.682,1.683-2.524,3.365-2.524,5.89c-7.573,14.305-22.72,23.562-39.548,23.562
		c-16.83,0-31.135-9.257-38.706-23.562c0.84-4.207-2.525-5.89-2.525-5.89l0,0c-1.683-5.049-2.525-9.256-2.525-15.146
		C293.576,20.62,313.772,0.425,337.333,0.425"/>
	<polyline style="fill-rule:evenodd;clip-rule:evenodd;fill:#FFFFFF;" points="343.224,34.083 373.517,34.083 373.517,47.546 
		367.625,47.546 367.625,41.657 363.418,41.657 363.418,59.328 367.625,59.328 367.625,65.217 349.112,65.217 349.112,59.328 
		354.161,59.328 354.161,41.657 349.112,41.657 349.112,47.546 343.224,47.546 343.224,34.083 	"/>
	<path style="fill-rule:evenodd;clip-rule:evenodd;fill:#FFFFFF;" d="M344.906,59.328v5.89h-46.279
		c-0.843-1.683-1.684-4.207-2.525-5.89H344.906 M379.405,59.328c-0.842,1.683-1.682,4.207-2.524,5.89h-5.048v-5.89H379.405"/>
	<path style="fill-rule:evenodd;clip-rule:evenodd;fill:#FFFFFF;" d="M307.04,21.462h22.72c8.414,0,11.781,12.622,3.366,15.988
		c8.415,0.841,9.256,15.987-2.526,15.987h-23.56v-6.731h4.208V27.352h-4.208V21.462 M320.503,27.352v7.573h5.051
		c1.682,0,3.364-1.683,3.364-3.366c0-2.525-1.683-4.208-3.364-4.208H320.503 M329.76,43.34c0-1.683-1.684-3.366-3.365-3.366h-5.892
		v6.732h5.892C328.076,46.706,329.76,45.023,329.76,43.34"/>
</g>
</svg>
